<svg width="40" height="40" viewBox="0 0 40 40" fill="none" xmlns="http://www.w3.org/2000/svg">
<rect width="40" height="40" rx="4" fill="#F2F2F2"/>
<path d="M27.9673 23.8453C28.2551 21.4588 28.2935 18.9075 27.692 16.8023C27.0982 14.7239 25.735 13.0734 23.9999 12.0719M12.1684 20.6354C12.1684 19.5 11.9519 18.8593 12.0605 18C12.4502 14.9184 14.6265 12.2152 17.8021 11.3079C18.5351 11.0985 19.2735 10.9984 19.9999 10.998M11.4814 25C11.233 25.967 10.8999 27.0795 10.4559 28.3375C10.3783 28.5574 10.3109 28.7784 10.2534 29M27.2191 28C27.1425 28.3271 27.0607 28.6604 26.9733 29" stroke="#444444" stroke-width="2" stroke-linecap="round"/>
<path d="M15.9991 19C15.9983 17.2586 17.1437 15.6561 18.9013 15.154C20.4329 14.7164 22.0112 15.2338 23 16.3528M15.9741 23C15.7499 24.5057 15.2996 26.5069 14.459 29M24.1536 20C24.1997 21.0023 24.144 22.1424 23.9964 23.3664C23.8064 24.9424 23.4436 26.8222 22.8313 29" stroke="#444444" stroke-width="2" stroke-linecap="round"/>
<path d="M20.0002 20C20.5002 22 19.7693 25.4011 18.6616 29" stroke="#444444" stroke-width="2" stroke-linecap="round"/>
</svg>
