<svg width="40" height="40" viewBox="0 0 40 40" fill="none" xmlns="http://www.w3.org/2000/svg">
<rect width="40" height="40" rx="4" fill="#F2F2F2"/>
<path d="M14 16H26V29C26 30.1046 25.1046 31 24 31H16C14.8954 31 14 30.1046 14 29V16Z" fill="#444444"/>
<path fill-rule="evenodd" clip-rule="evenodd" d="M15 11C15 9.89543 15.8954 9 17 9H23C24.1046 9 25 9.89543 25 11V15H15V11ZM19 12C19 12.5523 18.5523 13 18 13C17.4477 13 17 12.5523 17 12C17 11.4477 17.4477 11 18 11C18.5523 11 19 11.4477 19 12ZM22 13C22.5523 13 23 12.5523 23 12C23 11.4477 22.5523 11 22 11C21.4477 11 21 11.4477 21 12C21 12.5523 21.4477 13 22 13Z" fill="#444444"/>
</svg>
